<svg width="144" height="144" viewBox="0 0 144 144" fill="none" xmlns="http://www.w3.org/2000/svg">
  <path
    d="M101.601 2C123.912 2 142 20.0876 142 42.3994C142 50.7046 139.496 58.4189 135.202 64.8359C132.338 69.1163 132.338 74.8837 135.202 79.1641C139.496 85.5811 142 93.2954 142 101.601C142 123.912 123.912 142 101.601 142C93.2954 142 85.5811 139.496 79.1641 135.202C74.8837 132.338 69.1163 132.338 64.8359 135.202C58.4189 139.496 50.7046 142 42.3994 142C20.0876 142 2 123.912 2 101.601C2.00008 93.2954 4.50395 85.5811 8.79785 79.1641C11.662 74.8837 11.662 69.1163 8.79785 64.8359C4.50395 58.4189 2.00008 50.7046 2 42.3994C2 20.0876 20.0876 2 42.3994 2C50.7046 2.00008 58.4189 4.50395 64.8359 8.79785C69.1163 11.662 74.8837 11.662 79.1641 8.79785C85.5811 4.50395 93.2954 2.00008 101.601 2Z"
    stroke="currentColor"
    stroke-width="4"
    fill="none"
  />
</svg>
